<svg width="16" height="16" xmlns="http://www.w3.org/2000/svg" viewBox="0 0 16 16" shape-rendering="geometricPrecision" fill="#6e6e6e"><path d="M11.636 3.477h-9.03C1.183 3.477.028 4.594.027 5.971v4.865c.001 1.373 1.156 2.49 2.579 2.492h.199c-.098.396-.33.832-.844 1.285L.363 16l2.125-.314a7.647 7.647 0 0 0 4.432-2.357h4.717c1.425-.002 2.578-1.119 2.579-2.492V5.971c-.002-1.377-1.155-2.494-2.58-2.494zm1.298 7.359c0 .686-.588 1.254-1.298 1.256H6.299l-.191.246c-.034.049-.801 1.002-2.167 1.633.155-.416.215-.818.211-1.17 0-.025 0-.062-.002-.109l-.018-.6H2.606c-.71-.002-1.298-.57-1.298-1.256V5.971c0-.689.588-1.256 1.298-1.258h9.03c.71.002 1.298.568 1.298 1.258v4.865z"/><path d="M13.854 1.607H3.987c-.828 0-1.542.488-1.891 1.184.287-.144.604-.232.946-.232h9.866c1.166 0 2.119.951 2.119 2.117v5.504c0 .336-.087.65-.226.934a2.117 2.117 0 0 0 1.172-1.883V3.727c0-1.165-.954-2.12-2.119-2.12z"/><path d="M2.601 8.631h8.93v1.244h-8.93zm0-2.58h8.93v1.246h-8.93z"/></svg>